<?xml version="1.0" encoding="UTF-8"?>
<svg width="135px" height="42px" viewBox="0 0 135 42" version="1.1" xmlns="http://www.w3.org/2000/svg" xmlns:xlink="http://www.w3.org/1999/xlink">
    <!-- Generator: Sketch 46.2 (44496) - http://www.bohemiancoding.com/sketch -->
    <title>msp</title>
    <desc>Created with Sketch.</desc>
    <defs></defs>
    <g id="Page-1" stroke="none" stroke-width="1" fill="none" fill-rule="evenodd">
        <g id="msp" fill-rule="nonzero" fill="#DB5414">
            <g id="logo-msp-bank">
                <path d="M17.1236559,0 L17.2520235,0 C18.0356403,0.0610909091 18.6928055,0.547909091 19.2570479,1.05477273 C20.1268817,1.84609091 20.8453568,2.78154545 21.6146041,3.66545455 C20.0722776,4.98272727 18.5730596,6.34772727 17.0987488,7.73945455 C15.5784555,6.28663636 14.0121799,4.88154545 12.4142913,3.51368182 C13.3847116,2.59731818 14.2813685,1.59695455 15.3447116,0.784636364 C15.8677615,0.396136364 16.457869,0.0486818182 17.1236559,0 Z" id="Shape"></path>
                <path d="M64.996129,5.67859091 C66.1619746,4.98463636 67.5289932,4.69254545 68.8758944,4.662 C70.1442424,4.65054545 71.4327077,4.76031818 72.6378299,5.18031818 C72.6378299,6.22554545 72.6387879,7.27172727 72.6368719,8.31695455 C71.3436168,7.55618182 69.7696774,7.29463636 68.2944086,7.55522727 C66.9733724,7.791 65.7989052,8.70927273 65.2748974,9.94254545 C64.8054936,11.0631818 64.7470577,12.3355909 65.0104985,13.5144545 C65.2547801,14.6093182 65.9608016,15.6039545 66.9532551,16.1461364 C67.85087,16.6453636 68.916129,16.7245909 69.9219941,16.6253182 C70.878045,16.5308182 71.8082307,16.2196364 72.6378299,15.7385455 C72.6387879,16.7293636 72.635914,17.7201818 72.6387879,18.711 C71.6204692,19.2025909 70.4804888,19.3839545 69.3587097,19.4450455 C67.8853568,19.5376364 66.35261,19.3973182 65.0085826,18.7472727 C63.3742913,17.9655 62.1576735,16.4200909 61.7131769,14.6761364 C61.3299902,13.1660455 61.3328641,11.5566818 61.710303,10.0465909 C62.1586315,8.22913636 63.3723754,6.61786364 64.996129,5.67859091 Z" id="Shape"></path>
                <path d="M42.7023265,4.89204545 C44.2915934,4.89204545 45.8818182,4.89109091 47.472043,4.893 C48.19435,7.00063636 48.9300684,9.1035 49.6562072,11.2101818 C50.123695,12.6143182 50.7080547,13.9917273 50.930303,15.4636364 C51.2684653,13.9611818 51.8154643,12.5188636 52.3183969,11.0650909 C53.0282502,9.00709091 53.7467253,6.95195455 54.4565787,4.893 C56.0065689,4.89109091 57.5556012,4.893 59.1055914,4.89204545 C59.1075073,9.66477273 59.1065494,14.4375 59.1055914,19.2102273 C58.0288368,19.2102273 56.9511241,19.2102273 55.8734115,19.2102273 C55.8734115,16.4029091 55.8734115,13.5955909 55.8734115,10.7892273 C55.8628739,9.71440909 55.9385533,8.6415 55.9835777,7.56859091 C55.8542522,7.85781818 55.8437146,8.18140909 55.7613294,8.48495455 C55.6070968,9.26481818 55.3091691,10.0036364 55.0562659,10.7548636 C54.0800978,13.5726818 53.1087195,16.3924091 52.1296774,19.2102273 C51.2387683,19.2102273 50.3478592,19.2102273 49.4569501,19.2102273 C48.3236755,16.0268182 47.1923167,12.8434091 46.0580841,9.66095455 C45.8185924,8.97559091 45.7601564,8.24345455 45.5436559,7.55427273 C45.5244966,7.70509091 45.5312023,7.85686364 45.5426979,8.00768182 C45.7045943,10.3921364 45.6308309,12.7832727 45.6471163,15.1715455 C45.6471163,16.5174545 45.6480743,17.8633636 45.6471163,19.2102273 C44.6652004,19.2102273 43.6832845,19.2102273 42.7023265,19.2092727 C42.7013685,14.4375 42.7013685,9.66477273 42.7023265,4.89204545 Z" id="Shape"></path>
                <path d="M75.1285435,4.89204545 C79.2717498,4.89204545 83.414956,4.893 87.5572043,4.89204545 C87.5591202,9.66477273 87.5581623,14.4375 87.5572043,19.2102273 C86.471828,19.2102273 85.3864516,19.2102273 84.3010753,19.2102273 C84.3001173,15.3844091 84.3010753,11.5576364 84.3010753,7.73181818 C82.3286217,7.73181818 80.3571261,7.73086364 78.3856305,7.73277273 C78.3856305,11.5585909 78.3856305,15.3834545 78.3846725,19.2092727 C77.3002542,19.2111818 76.2148778,19.2092727 75.1304594,19.2102273 C75.1266276,14.4375 75.1295015,9.66477273 75.1285435,4.89204545 Z" id="Shape"></path>
                <path d="M19.9803128,10.5133636 C22.2593157,9.30490909 24.6264516,8.2635 27.0434018,7.3605 C28.2389443,8.84863636 29.3358162,10.4150455 30.3158162,12.0530455 C28.5081329,13.2958636 26.8690518,14.7591818 25.2098534,16.1890909 C23.5554448,14.2179545 21.791828,12.3413182 19.9803128,10.5133636 Z" id="Shape"></path>
                <path d="M4.00046921,12.1255909 C4.98238514,10.4809091 6.08021505,8.904 7.28150538,7.40918182 C9.65726295,8.29595455 11.9832063,9.32304545 14.2229326,10.5133636 C12.4162072,12.3451364 10.6535484,14.2217727 8.99243402,16.1862273 C7.37155425,14.7820909 5.76025415,13.3579091 4.00046921,12.1255909 Z" id="Shape"></path>
                <path d="M10.4083089,17.2744091 C12.4420723,15.3309545 14.7162854,13.6461818 17.1044966,12.1618636 C19.5003715,13.6423636 21.7563832,15.3481364 23.8121799,17.2696364 C21.5168915,18.8198182 19.2398045,20.4062727 17.1102444,22.1798182 C14.9711046,20.4196364 12.7016813,18.8265 10.4083089,17.2744091 Z" id="Shape"></path>
                <path d="M0.125493646,21.9230455 C0.413841642,19.9175455 1.10549365,17.9855455 1.91210166,16.1318182 C3.77055718,16.7169545 5.60218964,17.3908636 7.37921799,18.1898182 C5.73917889,20.3003182 4.24187683,22.5244091 2.9802346,24.8811818 C1.9714956,23.9524091 0.983831867,22.9921364 0.125493646,21.9230455 Z" id="Shape"></path>
                <path d="M26.8307331,18.1917273 C28.6479961,17.3708182 30.523695,16.6816364 32.4281329,16.0917273 C33.2424047,17.9015455 33.8832845,19.7982273 34.2252786,21.7550455 C33.319042,22.8842727 32.2892278,23.9085 31.2201369,24.8840455 C29.975738,22.5196364 28.4631085,20.3050909 26.8307331,18.1917273 Z" id="Shape"></path>
                <path d="M3.81270772,25.5818182 C5.20367546,23.1534545 6.888739,20.8911818 8.81616813,18.8589545 C11.3145455,20.0740909 13.6960508,21.5297727 15.9079961,23.2069091 C13.8397458,25.032 12.020567,27.1195909 10.3786119,29.3293636 C8.30844575,27.8860909 6.04956012,26.7425455 3.81270772,25.5818182 Z" id="Shape"></path>
                <path d="M18.2990811,23.2078636 C20.5100684,21.5288182 22.8906158,20.0721818 25.3918671,18.8627727 C27.3212121,20.8892727 28.996696,23.1544091 30.3953275,25.5751364 C28.1632649,26.7492273 25.8947996,27.8803636 23.8275073,29.3331818 C22.1874682,27.1215 20.3730792,25.0272273 18.2990811,23.2078636 Z" id="Shape"></path>
                <path d="M17.0987488,24.15 C19.226393,25.8968182 21.1978886,27.8345455 22.9816227,29.9288182 C20.8597263,31.5028636 18.8920626,33.2783182 17.0958749,35.2131818 C15.3140567,33.2697273 13.3435191,31.4971364 11.2206647,29.9297727 C13.0053568,27.8355 14.9806843,25.9082727 17.0987488,24.15 Z" id="Shape"></path>
                <path d="M42.7023265,24.2225455 C45.7908113,24.2215909 48.8802542,24.2215909 51.969697,24.2215909 C51.969697,25.1045455 51.969697,25.9875 51.969697,26.8695 C49.9742522,26.8714091 47.9778495,26.8695 45.9824047,26.8704545 C45.9824047,27.9042273 45.9824047,28.9389545 45.9824047,29.9727273 C46.9739003,29.9736818 47.9653959,29.9717727 48.9568915,29.9727273 C50.0882502,30.0004091 51.277087,30.2275909 52.1871554,30.9406364 C52.9573607,31.521 53.4315543,32.4421364 53.525435,33.3928636 C53.6375171,34.5850909 53.4516716,35.8785 52.688172,36.8416364 C52.0281329,37.6988182 51.0002346,38.2028182 49.950303,38.3965909 C48.8639687,38.5960909 47.7536852,38.5264091 46.6548974,38.5397727 C45.3367351,38.5397727 44.0195308,38.5397727 42.7013685,38.5397727 C42.7013685,33.7670455 42.7013685,28.9943182 42.7023265,24.2225455 L42.7023265,24.2225455 Z M45.9824047,32.3352273 C45.9824047,33.6076364 45.9814467,34.881 45.9833627,36.1534091 C46.6213685,36.1524545 47.2603324,36.1534091 47.8983382,36.1543636 C48.4175562,36.1495909 48.9597654,36.0655909 49.3994721,35.7725455 C49.8046921,35.5129091 50.0326882,35.0423182 50.0863343,34.5755455 C50.1466862,34.0104545 50.1026197,33.3756818 49.7021896,32.9327727 C49.3027175,32.487 48.6723754,32.3667273 48.1004692,32.34 C47.3944477,32.3275909 46.6884262,32.3380909 45.9824047,32.3352273 Z" id="Shape"></path>
                <path d="M54.3282111,38.5388182 C56.0640469,33.7641818 57.8161681,28.9943182 59.5596676,24.2225455 C60.8481329,24.2206364 62.1365982,24.2215909 63.4250635,24.2215909 C65.1225806,28.9952727 66.8392571,33.7632273 68.5300684,38.5388182 C67.3469795,38.5407273 66.1638905,38.5388182 64.9808016,38.5397727 C64.6416813,37.4745 64.2910655,36.4120909 63.959609,35.3449091 C62.2649658,35.3401364 60.5693646,35.3410909 58.8747214,35.3439545 C58.5384751,36.4101818 58.2041447,37.4773636 57.8564027,38.5397727 C56.6800196,38.5388182 55.5036364,38.5407273 54.3282111,38.5388182 L54.3282111,38.5388182 Z M61.4056696,26.7492273 C61.3261584,27.1682727 61.2744282,27.594 61.1364809,28.0006364 C60.6191789,29.6214545 60.0884653,31.2375 59.576911,32.8592727 C60.788739,32.8602273 62.000567,32.8621364 63.2123949,32.8583182 C62.8962659,31.8961364 62.5916325,30.9301364 62.2812512,29.9660455 C61.9555425,28.9026818 61.5340371,27.8612727 61.4056696,26.7492273 Z" id="Shape"></path>
                <path d="M70.2917693,24.2225455 C71.3761877,24.2206364 72.461564,24.2225455 73.5469404,24.2215909 C73.5498143,26.1220909 73.5459824,28.0235455 73.5478983,29.925 C75.5193939,29.925 77.4908895,29.925 79.4633431,29.925 C79.4643011,28.0235455 79.4614272,26.1230455 79.4643011,24.2215909 C80.5573412,24.2215909 81.6503812,24.2215909 82.7443793,24.2215909 C82.7443793,28.9943182 82.7443793,33.7670455 82.7443793,38.5397727 C81.6503812,38.5388182 80.5563832,38.5407273 79.4633431,38.5388182 C79.4633431,36.5982273 79.4643011,34.6576364 79.4623851,32.7170455 C77.4908895,32.7170455 75.5193939,32.7160909 73.5478983,32.7170455 C73.5469404,34.6576364 73.5478983,36.5982273 73.5478983,38.5397727 C72.461564,38.5397727 71.3761877,38.5397727 70.2917693,38.5397727 C70.2908113,33.7670455 70.2908113,28.9943182 70.2917693,24.2225455 Z" id="Shape"></path>
                <path d="M86.0024242,24.2225455 C87.0868426,24.2215909 88.172219,24.2215909 89.2575953,24.2215909 C89.2595112,26.4800455 89.2566373,28.7375455 89.2595112,30.996 C89.6608993,30.1025455 90.2644184,29.3255455 90.7913001,28.5055909 C91.7396872,27.0804545 92.6890323,25.6553182 93.6326295,24.2273182 C94.9316325,24.2149091 96.2306354,24.2244545 97.5296383,24.2225455 C95.867566,26.4991364 94.193998,28.7671364 92.5280938,31.0408636 C94.338651,33.5427273 96.1654936,36.0321818 97.970303,38.5369091 C96.5946628,38.5416818 95.2199804,38.5407273 93.8452981,38.5378636 C92.7455523,36.8865 91.629521,35.2475455 90.5249853,33.6 C90.0756989,32.9155909 89.5516911,32.2693636 89.2604692,31.4961818 C89.2556794,33.8434091 89.2604692,36.1915909 89.2585533,38.5397727 C88.172219,38.5397727 87.0868426,38.5397727 86.0014663,38.5388182 C86.0014663,33.7670455 86.0014663,28.9943182 86.0024242,24.2225455 Z" id="Shape"></path>
                <path d="M32.1522385,26.7826364 C32.8687977,26.5735909 33.5949365,26.3941364 34.327781,26.2528636 C34.186002,27.6054545 33.8765787,28.9389545 33.4320821,30.2237727 C33.08913,29.0477727 32.6522972,27.9013636 32.1522385,26.7826364 Z" id="Shape"></path>
                <path d="M0.0392766367,26.2891364 C0.717517106,26.4199091 1.38905181,26.5840909 2.05004888,26.7845455 C1.58926686,27.8259545 1.18308895,28.8902727 0.844926686,29.9775 C0.448328445,28.7805 0.172434017,27.5424545 0.0392766367,26.2891364 Z" id="Shape"></path>
                <path d="M3.00130987,27.0737727 C5.37036168,27.8326364 7.63020528,28.9084091 9.7568915,30.1903636 C8.16954057,32.4698182 6.66553275,34.8447273 5.68553275,37.4544545 C3.73511241,35.6923636 2.21865103,33.4625455 1.23577713,31.0313182 C1.75595308,29.6835 2.3316911,28.3557273 3.00130987,27.0737727 Z" id="Shape"></path>
                <path d="M24.4511437,30.1941818 C26.5711241,28.8988636 28.8386315,27.846 31.1990616,27.0661364 C31.906999,28.4139545 32.5153079,29.8142727 33.0431476,31.2413182 C32.0344086,33.6458182 30.493998,35.8240909 28.5608211,37.5785455 C27.5971065,34.9172727 26.0605279,32.508 24.4511437,30.1941818 Z" id="Shape"></path>
                <path d="M10.5807429,30.7029545 C12.797478,32.1252273 14.8628543,33.7718182 16.7979472,35.5549091 C16.0114565,36.4579091 15.2422092,37.38 14.5725904,38.3736818 C15.3945259,37.5069545 16.2298729,36.6526364 17.1073705,35.8412727 C17.9810362,36.6745909 18.8384164,37.5231818 19.6613099,38.4061364 C18.9811535,37.4048182 18.2090323,36.4703182 17.4139198,35.5587273 C19.341349,33.7689545 21.4086413,32.1204545 23.6301662,30.7067727 C25.4177322,32.9184545 27.0031672,35.3095909 28.1776344,37.9021364 C26.0739394,39.711 23.5123363,40.9891364 20.7984164,41.5809545 C18.3431476,42.1193182 15.7681329,42.1002273 13.3214858,41.5265455 C10.6478006,40.9013182 8.1369697,39.6050455 6.07063539,37.8047727 C7.24989247,35.2504091 8.81042033,32.886 10.5807429,30.7029545 Z" id="Shape"></path>
            </g>
        </g>
    </g>
</svg>