<?xml version="1.0" encoding="UTF-8"?>
<svg width="135px" height="42px" viewBox="0 0 135 42" version="1.1" xmlns="http://www.w3.org/2000/svg" xmlns:xlink="http://www.w3.org/1999/xlink">
    <!-- Generator: Sketch 46.2 (44496) - http://www.bohemiancoding.com/sketch -->
    <title>raiffeisen</title>
    <desc>Created with Sketch.</desc>
    <defs></defs>
    <g id="Page-1" stroke="none" stroke-width="1" fill="none" fill-rule="evenodd">
        <g id="raiffeisen">
            <g id="Raiffeisen_Bank" transform="translate(0.000000, 3.000000)">
                <polygon id="Fill-2" fill="#1A1919" points="0.38440678 35.9382203 35.6148305 35.9382203 35.6148305 0.70779661 0.38440678 0.70779661"></polygon>
                <polygon id="Fill-3" fill="#FFF101" points="1.40338983 34.9192373 34.5958475 34.9192373 34.5958475 1.72601695 1.40338983 1.72601695"></polygon>
                <path d="M3.16449153,28.2127119 L7.49440678,32.6272881 L17.6384746,22.3337288 L28.1227119,32.839322 L32.5159322,28.4888136 L22.1377119,18.1105932 L24.1329661,16.1794068 L24.1329661,12.0622881 L25.385339,11.0005932 L25.385339,14.2268644 L26.9984746,15.5425424 L31.8157627,10.7252542 L33.3648305,11.9135593 C34.2777966,8.53932203 28.9929661,0.877118644 24.6211017,5.12237288 L19.5277119,10.1730508 L20.5672881,11.4254237 L17.9778814,13.9507627 L15.4738983,11.4887288 L16.7895763,10.3004237 L11.2080508,4.90957627 C7.00627119,1.45067797 2.69771186,6.71415254 2.54898305,11.8494915 L4.07745763,10.5765254 L8.76737288,15.6272034 L10.4438136,14.2268644 L10.4438136,11.1279661 L11.4841525,11.9135593 L11.4841525,15.9673729 L13.5213559,18.0045763 L3.16449153,28.2127119" id="Fill-4" fill="#1A1919"></path>
                <path d="M44.6133051,4.9309322 L44.6133051,7.98711864 L45.9289831,7.98711864 C47.7335593,7.64771186 47.244661,5.05830508 45.9289831,4.9309322 L44.6133051,4.9309322 Z M40.8783051,1.89610169 L40.8783051,15.7332203 L44.6133051,15.7332203 L44.6133051,11.2339831 L47.7968644,15.7332203 L52.2114407,15.7332203 L48.285,10.1944068 C52.8269492,7.98711864 51.1291525,1.95940678 46.3538136,1.89610169 L40.8783051,1.89610169 Z M58.1537288,8.81466102 C59.3847458,8.81466102 60.3823729,9.74898305 60.3823729,10.8945763 C60.3823729,12.0409322 59.3847458,12.9744915 58.1537288,12.9744915 C56.9440678,12.9744915 55.9464407,12.0409322 55.9464407,10.8945763 C55.9464407,9.74898305 56.9440678,8.81466102 58.1537288,8.81466102 Z M57.3681356,5.75847458 C58.3871186,5.75847458 59.3420339,6.09864407 60.1276271,6.65008475 L60.1276271,6.11923729 L63.7779661,6.11923729 L63.7985593,15.7332203 L60.1062712,15.7332203 L60.1276271,15.1390678 C59.3420339,15.6912712 58.3871186,16.009322 57.3681356,16.009322 C54.6521186,16.009322 52.4234746,13.7173729 52.4234746,10.8945763 C52.4234746,8.07177966 54.6521186,5.75847458 57.3681356,5.75847458 Z M65.7305085,15.7332203 L69.6142373,15.7332203 L69.6142373,6.11923729 L65.7305085,6.11923729 L65.7305085,15.7332203 Z M67.6830508,0.622372881 C68.8080508,0.622372881 69.7202542,1.55669492 69.7202542,2.68169492 C69.7202542,3.8059322 68.8080508,4.74025424 67.6830508,4.74025424 C66.5366949,4.74025424 65.6237288,3.8059322 65.6237288,2.68169492 C65.6237288,1.55669492 66.5366949,0.622372881 67.6830508,0.622372881 Z M97.1618644,15.7332203 L101.045593,15.7332203 L101.045593,6.11923729 L97.1618644,6.11923729 L97.1618644,15.7332203 Z M99.0930508,0.622372881 C100.239407,0.622372881 101.15161,1.55669492 101.15161,2.68169492 C101.15161,3.8059322 100.239407,4.74025424 99.0930508,4.74025424 C97.9680508,4.74025424 97.0558475,3.8059322 97.0558475,2.68169492 C97.0558475,1.55669492 97.9680508,0.622372881 99.0930508,0.622372881 Z M70.3357627,6.11923729 L70.3357627,9.17542373 L71.6727966,9.17542373 L71.6727966,15.7332203 L75.4291525,15.7332203 L75.4291525,9.17542373 L78.9521186,9.17542373 L78.9521186,15.7332203 L82.8358475,15.7332203 L82.8358475,9.13271186 L85.2551695,9.13271186 L85.2551695,6.16194915 L82.7298305,6.16194915 L82.7298305,4.01872881 C82.6665254,3.23313559 84.5130508,2.91508475 85.1491525,3.55118644 L85.1491525,0.410338983 C81.5842373,-0.713898305 78.6973729,1.30194915 78.7187288,4.42144068 L78.7187288,6.11923729 L75.4077966,6.11923729 L75.4077966,4.01872881 C75.3658475,3.23313559 76.9782203,2.91508475 77.9125424,3.55118644 L77.9125424,0.410338983 C74.8136441,-0.501864407 71.5027119,1.00449153 71.5240678,4.40008475 L71.5240678,6.09864407 L70.3357627,6.11923729 Z M90.7947458,16.009322 C94.1270339,15.9879661 95.3580508,14.6089831 96.0795763,12.5923729 L92.7045763,12.5923729 C91.1768644,14.5449153 88.9482203,13.1232203 89.0542373,11.5314407 L96.1855932,11.5314407 C96.1855932,7.62635593 94.105678,5.77983051 90.7947458,5.77983051 C87.4838136,5.77983051 85.4038983,8.11449153 85.4038983,10.9586441 C85.4038983,13.8020339 87.8232203,16.030678 90.7947458,16.009322 Z M89.5423729,9.26008475 C89.5850847,8.09313559 92.1317797,8.09313559 92.3018644,9.26008475 L89.5423729,9.26008475 Z M117.238729,16.009322 C120.59161,15.9879661 121.822627,14.6089831 122.544153,12.5923729 L119.148559,12.5923729 C117.620847,14.5449153 115.392203,13.1232203 115.49822,11.5314407 L122.629576,11.5314407 C122.629576,7.62635593 120.571017,5.77983051 117.238729,5.77983051 C113.927797,5.77983051 111.847881,8.11449153 111.847881,10.9586441 C111.847881,13.8020339 114.267203,16.030678 117.238729,16.009322 Z M115.986356,9.26008475 C116.029068,8.09313559 118.575763,8.09313559 118.745847,9.26008475 L115.986356,9.26008475 Z M110.829661,6.31067797 L109.683305,8.64533898 C108.240254,8.19915254 106.839153,8.28457627 106.881864,8.68728814 C106.924576,8.9420339 106.690424,9.38745763 108.940424,9.70627119 C112.294068,10.2371186 112.017966,16.4761017 106.393729,16.009322 C104.844661,15.9033051 103.592288,15.5005932 102.552712,14.8850847 L103.804322,12.380339 C105.566186,13.2505932 107.263983,13.7600847 107.391356,12.8898305 C107.540085,11.8075424 105.544831,12.189661 104.335169,11.2766949 C102.170593,9.93966102 103.40161,5.80118644 106.945169,5.75847458 C108.197542,5.67381356 109.492627,5.88584746 110.829661,6.31067797 Z M124.115339,6.11923729 L124.115339,15.7332203 L127.744322,15.7332203 L127.744322,9.855 C127.850339,8.39059322 130.736441,8.13584746 130.757797,9.855 L130.757797,15.7332203 L134.429492,15.7332203 L134.429492,9.70627119 C134.344831,6.3320339 130.800508,4.69754237 127.595593,6.84076271 L127.595593,6.11923729 L124.115339,6.11923729 Z M43.0215254,21.6122034 L40.6022034,35.8741525 L47.4574576,35.8741525 C52.104661,35.8741525 54.0152542,30.1019492 50.704322,28.1280508 C53.5271186,25.5172881 52.0840678,21.5908475 49.0492373,21.5488983 L43.0215254,21.6122034 Z M45.8016102,30.1225424 L45.3134746,32.4785593 L46.9052542,32.4785593 C48.7090678,32.5632203 48.4970339,30.1225424 47.4574576,30.1225424 L45.8016102,30.1225424 Z M46.6085593,25.0077966 L46.2050847,26.9183898 L46.6932203,26.9397458 C48.1576271,27.0244068 49.0065254,25.0077966 47.244661,25.0077966 L46.6085593,25.0077966 Z M52.2533898,35.8955085 L56.4132203,35.8955085 L57.6655932,33.3915254 L62.3768644,33.3915254 L63.0777966,35.9382203 L66.9188136,35.9382203 L63.5865254,21.6968644 L59.6600847,21.6968644 L52.2533898,35.8955085 Z M59.0239831,30.3986441 L61.6126271,30.3986441 L60.7850847,26.6422881 L59.0239831,30.3986441 Z M68.2344915,35.9382203 L72.0762712,35.9382203 L73.0525424,27.0030508 L78.5494068,35.8955085 L82.6665254,35.8955085 L84.385678,21.6122034 L80.5438983,21.6122034 L79.4616102,30.5473729 L73.9647458,21.5702542 L69.9963559,21.5702542 L68.2344915,35.9382203 Z M87.1444068,21.5702542 L84.4489831,35.8955085 L88.5027966,35.8955085 L89.5850847,30.5473729 L93.2140678,35.8955085 L98.5416102,35.8955085 L93.3414407,28.3827966 L99.984661,21.5488983 L94.8272034,21.5488983 L90.2852542,26.5995763 L91.0067797,21.5488983 L87.1444068,21.5702542 L87.1444068,21.5702542 Z" id="Fill-5" fill="#1A1919"></path>
            </g>
        </g>
    </g>
</svg>