<?xml version="1.0" encoding="UTF-8"?>
<svg width="135px" height="42px" viewBox="0 0 135 42" version="1.1" xmlns="http://www.w3.org/2000/svg" xmlns:xlink="http://www.w3.org/1999/xlink">
    <!-- Generator: Sketch 46.2 (44496) - http://www.bohemiancoding.com/sketch -->
    <title>sberbank</title>
    <desc>Created with Sketch.</desc>
    <defs></defs>
    <g id="Page-1" stroke="none" stroke-width="1" fill="none" fill-rule="evenodd">
        <g id="sberbank" fill-rule="nonzero" fill="#1A9F29">
            <g transform="translate(0.000000, 4.000000)">
                <path d="M35.1666667,15.6666667 C35.7222222,16.2777778 36.3888889,16.7222222 37.2222222,17.0555556 C38.0555556,17.3888889 39,17.5555556 40.1666667,17.5555556 C40.7222222,17.5555556 41.2777778,17.5 41.7222222,17.4444444 C42.2222222,17.3888889 42.6111111,17.2777778 43,17.1111111 C43.3888889,17 43.7222222,16.8333333 44.0555556,16.7222222 C44.3333333,16.5555556 44.6111111,16.4444444 44.8333333,16.3333333 L44.4444444,15.5 C44.2222222,15.6111111 44,15.7222222 43.7777778,15.8333333 C43.5555556,15.9444444 43.3333333,16 43.0555556,16.1111111 C42.7777778,16.1666667 42.5,16.2777778 42.1666667,16.2777778 C41.8333333,16.3333333 41.4444444,16.3333333 41,16.3333333 C40.1666667,16.3333333 39.4444444,16.1666667 38.9444444,15.8333333 C38.3888889,15.5 38,15.0555556 37.6666667,14.5555556 C37.3888889,14 37.1666667,13.3333333 37.0555556,12.6111111 C36.9444444,11.8333333 36.8888889,11.0555556 36.8888889,10.1666667 C36.8888889,9.5 36.9444444,8.77777778 37,8.05555556 C37.0555556,7.33333333 37.2222222,6.72222222 37.5,6.16666667 C37.7777778,5.61111111 38.1111111,5.16666667 38.6111111,4.77777778 C39.1111111,4.44444444 39.7777778,4.22222222 40.6111111,4.22222222 C41.3888889,4.22222222 42.0555556,4.44444444 42.6111111,4.83333333 C43.1666667,5.22222222 43.5,5.88888889 43.6666667,6.72222222 L44.5555556,6.72222222 L44.5555556,4 C44.2777778,3.88888889 44,3.77777778 43.6666667,3.66666667 C43.3333333,3.55555556 43,3.5 42.6111111,3.44444444 C42.2222222,3.38888889 41.8888889,3.38888889 41.5,3.33333333 C41.1666667,3.33333333 40.8333333,3.27777778 40.5555556,3.27777778 C39.3333333,3.27777778 38.3333333,3.44444444 37.4444444,3.77777778 C36.6111111,4.11111111 35.8888889,4.61111111 35.3333333,5.22222222 C34.7777778,5.83333333 34.3888889,6.61111111 34.1111111,7.5 C33.8333333,8.38888889 33.7222222,9.44444444 33.7222222,10.5555556 C33.7222222,11.6111111 33.8333333,12.6111111 34.1111111,13.4444444 C34.2777778,14.3888889 34.6666667,15.1111111 35.1666667,15.6666667 Z" id="Shape"></path>
                <path d="M89.5,17.1111111 C90.1666667,17.0555556 90.8333333,16.8333333 91.3333333,16.5555556 C91.8888889,16.2222222 92.3333333,15.7777778 92.6111111,15.1666667 C92.9444444,14.5555556 93.1111111,13.7222222 93.1111111,12.6666667 C93.1111111,11.8888889 93,11.2777778 92.7777778,10.7222222 C92.5555556,10.1666667 92.2222222,9.77777778 91.7222222,9.38888889 C91.2222222,9.05555556 90.6111111,8.83333333 89.8333333,8.66666667 C89.0555556,8.5 88.1111111,8.44444444 87,8.44444444 L85.8333333,8.44444444 L85.8333333,5.16666667 C85.8333333,4.83333333 85.8888889,4.61111111 86.0555556,4.5 C86.2222222,4.38888889 86.5,4.38888889 86.9444444,4.38888889 L88.6111111,4.38888889 C89.1111111,4.38888889 89.5555556,4.38888889 89.8888889,4.44444444 C90.2222222,4.5 90.5,4.55555556 90.6666667,4.72222222 C90.8888889,4.88888889 91.0555556,5.11111111 91.1666667,5.38888889 C91.2777778,5.66666667 91.4444444,6.05555556 91.5555556,6.55555556 L92.2777778,6.55555556 L92.2777778,3.5 L82.8333333,3.5 L82.0555556,3.5 L82.0555556,3.94444444 C82.1111111,3.94444444 82.1666667,4 82.3333333,4 C82.5,4.05555556 82.6111111,4.11111111 82.6666667,4.16666667 C82.7222222,4.22222222 82.7777778,4.33333333 82.8333333,4.5 C82.8333333,4.66666667 82.8888889,4.83333333 82.8888889,5.05555556 L82.8888889,7.83333333 L82.8888889,12.8888889 L82.8888889,15.6666667 C82.8888889,15.8888889 82.8888889,16.1111111 82.8333333,16.2222222 C82.8333333,16.3888889 82.7777778,16.5 82.6666667,16.5555556 C82.6111111,16.6111111 82.5,16.7222222 82.3333333,16.7222222 C82.1666667,16.7777778 82.1111111,16.7777778 82.0555556,16.7777778 L82.0555556,17.2222222 L87.2222222,17.2222222 C88.0555556,17.2222222 88.7777778,17.2222222 89.5,17.1111111 Z M86.1111111,16.1111111 C86,16 85.9444444,15.8888889 85.9444444,15.7222222 C85.9444444,15.5555556 85.8888889,15.3333333 85.8888889,15.0555556 L85.8888889,9.27777778 L87.0555556,9.27777778 C88.1111111,9.27777778 88.8888889,9.55555556 89.3333333,10.1111111 C89.7777778,10.6666667 90,11.5555556 90,12.7777778 C90,13.6111111 89.9444444,14.2222222 89.7777778,14.7222222 C89.6111111,15.2222222 89.4444444,15.5555556 89.1666667,15.8333333 C88.8888889,16.0555556 88.6111111,16.2222222 88.3333333,16.3333333 C88,16.3888889 87.6666667,16.4444444 87.3333333,16.4444444 C87,16.3888889 86.7222222,16.3888889 86.5555556,16.3333333 C86.3888889,16.2777778 86.2222222,16.2222222 86.1111111,16.1111111 Z" id="Shape"></path>
                <path d="M74.8888889,16.7777778 C74.8333333,16.7777778 74.7777778,16.7222222 74.6111111,16.7222222 C74.4444444,16.6666667 74.3333333,16.6111111 74.2777778,16.5555556 C74.2222222,16.5 74.1666667,16.3888889 74.1111111,16.2222222 C74.1111111,16.0555556 74.0555556,15.8888889 74.0555556,15.6666667 L74.0555556,11.8333333 L75.4444444,11.8333333 C76.1666667,11.8333333 76.8333333,11.7777778 77.5,11.6666667 C78.1666667,11.5555556 78.7222222,11.3333333 79.2222222,11.0555556 C79.7222222,10.7222222 80.1111111,10.3333333 80.3888889,9.72222222 C80.6666667,9.16666667 80.8333333,8.38888889 80.8333333,7.44444444 C80.8333333,6.55555556 80.6666667,5.83333333 80.4444444,5.33333333 C80.1666667,4.83333333 79.7777778,4.38888889 79.3333333,4.11111111 C78.8888889,3.83333333 78.3333333,3.66666667 77.7222222,3.61111111 C77.1111111,3.55555556 76.5,3.5 75.8333333,3.5 L71.1666667,3.5 L70.3888889,3.5 L70.3888889,3.94444444 C70.4444444,3.94444444 70.5,4 70.6666667,4 C70.8333333,4.05555556 70.9444444,4.11111111 71,4.16666667 C71.0555556,4.22222222 71.1111111,4.33333333 71.1666667,4.5 C71.1666667,4.66666667 71.2222222,4.83333333 71.2222222,5.05555556 L71.2222222,15.6111111 C71.2222222,15.8333333 71.2222222,16.0555556 71.1666667,16.1666667 C71.1666667,16.3333333 71.1111111,16.4444444 71,16.5 C70.9444444,16.5555556 70.8333333,16.6666667 70.6666667,16.6666667 C70.5,16.7222222 70.4444444,16.7222222 70.3888889,16.7222222 L70.3888889,17.1666667 L74.8888889,17.1666667 L74.8888889,16.7777778 L74.8888889,16.7777778 Z M74.1111111,5.05555556 C74.1111111,4.94444444 74.1111111,4.83333333 74.1666667,4.72222222 C74.1666667,4.61111111 74.2222222,4.55555556 74.2777778,4.5 C74.3333333,4.44444444 74.4444444,4.38888889 74.6111111,4.38888889 C74.7777778,4.38888889 74.9444444,4.33333333 75.2222222,4.33333333 C75.5555556,4.33333333 75.8888889,4.38888889 76.2222222,4.44444444 C76.5555556,4.55555556 76.7777778,4.72222222 77.0555556,4.94444444 C77.2777778,5.16666667 77.4444444,5.5 77.6111111,5.88888889 C77.7222222,6.27777778 77.7777778,6.77777778 77.7777778,7.33333333 C77.7777778,8.5 77.6111111,9.38888889 77.2777778,10 C76.9444444,10.6111111 76.3333333,10.9444444 75.5,10.9444444 L74.1111111,10.9444444 L74.1111111,5.05555556 L74.1111111,5.05555556 Z" id="Shape"></path>
                <path d="M68.5555556,14.0555556 L67.6666667,14.0555556 C67.5555556,14.6111111 67.4444444,15 67.3333333,15.3333333 C67.2222222,15.6666667 67.1111111,15.8888889 66.8888889,16.0555556 C66.7222222,16.2222222 66.4444444,16.3333333 66.1111111,16.3333333 C65.7777778,16.3888889 65.3333333,16.3888889 64.7222222,16.3888889 C64.1666667,16.3888889 63.7222222,16.3888889 63.4444444,16.3333333 C63.1111111,16.2777778 62.8888889,16.2222222 62.7222222,16.1111111 C62.5555556,16 62.4444444,15.8333333 62.4444444,15.6666667 C62.3888889,15.4444444 62.3888889,15.2222222 62.3888889,14.8888889 L62.3888889,10.5555556 L64.2222222,10.5555556 C64.3888889,10.5555556 64.5555556,10.5555556 64.7777778,10.5555556 C65,10.5555556 65.2222222,10.6111111 65.4444444,10.6111111 C65.6666667,10.6111111 65.8888889,10.6666667 66.1111111,10.7222222 C66.3333333,10.7777778 66.5,10.8333333 66.6666667,10.9444444 L66.6666667,9.16666667 C66.5,9.27777778 66.3333333,9.33333333 66.1111111,9.38888889 C65.8888889,9.44444444 65.6666667,9.5 65.4444444,9.5 C65.2222222,9.55555556 65,9.55555556 64.7777778,9.55555556 C64.5555556,9.55555556 64.3888889,9.55555556 64.2222222,9.55555556 L62.3888889,9.55555556 L62.3888889,5 C62.3888889,4.72222222 62.4444444,4.5 62.5,4.38888889 C62.6111111,4.27777778 62.7777778,4.27777778 63.0555556,4.27777778 L64.5555556,4.27777778 C65.0555556,4.27777778 65.5,4.27777778 65.8333333,4.33333333 C66.1666667,4.38888889 66.4444444,4.44444444 66.6111111,4.61111111 C66.8333333,4.77777778 67,5 67.1111111,5.27777778 C67.2222222,5.55555556 67.3888889,5.94444444 67.5,6.44444444 L68.2222222,6.44444444 L68.2222222,3.5 L59.4444444,3.5 L58.6666667,3.5 L58.6666667,3.94444444 C58.7222222,3.94444444 58.7777778,4 58.9444444,4 C59.1111111,4.05555556 59.2222222,4.11111111 59.2777778,4.16666667 C59.3333333,4.22222222 59.3888889,4.33333333 59.4444444,4.5 C59.4444444,4.66666667 59.5,4.83333333 59.5,5.05555556 L59.5,15.6111111 C59.5,15.8333333 59.5,16.0555556 59.4444444,16.1666667 C59.4444444,16.3333333 59.3888889,16.4444444 59.2777778,16.5 C59.2222222,16.5555556 59.1111111,16.6666667 58.9444444,16.6666667 C58.7777778,16.7222222 58.7222222,16.7222222 58.6666667,16.7222222 L58.6666667,17.1666667 L68.5555556,17.1666667 L68.5555556,14.0555556 L68.5555556,14.0555556 Z" id="Shape"></path>
                <path d="M53.4444444,17.1111111 C54.1111111,17.0555556 54.7777778,16.8333333 55.2777778,16.5555556 C55.8333333,16.2222222 56.2777778,15.7777778 56.6111111,15.1666667 C56.9444444,14.5555556 57.1111111,13.7222222 57.1111111,12.6666667 C57.1111111,11.8888889 57,11.2777778 56.7777778,10.7222222 C56.5555556,10.1666667 56.2222222,9.77777778 55.7222222,9.38888889 C55.2222222,9.05555556 54.6111111,8.83333333 53.8333333,8.66666667 C53.0555556,8.5 52.1111111,8.44444444 51,8.44444444 L49.8333333,8.44444444 L49.8333333,5.16666667 C49.8333333,4.83333333 49.8888889,4.61111111 50.0555556,4.5 C50.2222222,4.38888889 50.5,4.38888889 50.9444444,4.38888889 L52.6111111,4.38888889 C53.1111111,4.38888889 53.5555556,4.38888889 53.8888889,4.44444444 C54.2222222,4.5 54.5,4.55555556 54.6666667,4.72222222 C54.8888889,4.88888889 55.0555556,5.11111111 55.1666667,5.38888889 C55.2777778,5.66666667 55.4444444,6.05555556 55.5555556,6.55555556 L56.2777778,6.55555556 L56.2777778,3.5 L46.8333333,3.5 L46.0555556,3.5 L46.0555556,3.94444444 C46.1111111,3.94444444 46.1666667,4 46.3333333,4 C46.5,4.05555556 46.6111111,4.11111111 46.6666667,4.16666667 C46.7222222,4.22222222 46.7777778,4.33333333 46.8333333,4.5 C46.8333333,4.66666667 46.8888889,4.83333333 46.8888889,5.05555556 L46.8888889,5.33333333 L46.8888889,7.77777778 L46.8888889,12.7777778 L46.8888889,14.8333333 C46.8888889,14.8333333 46.8888889,14.8333333 46.8888889,14.8888889 L46.8888889,15.6111111 C46.8888889,15.8333333 46.8888889,16 46.8333333,16.1666667 C46.8333333,16.3333333 46.7777778,16.4444444 46.6666667,16.5 C46.6111111,16.5555556 46.5,16.6666667 46.3333333,16.6666667 C46.1666667,16.7222222 46.1111111,16.7222222 46.0555556,16.7222222 L46.0555556,17.2222222 L51.2222222,17.2222222 C52.0555556,17.2222222 52.7222222,17.2222222 53.4444444,17.1111111 Z M50.0555556,16.1111111 C49.9444444,16 49.8888889,15.8888889 49.8888889,15.7222222 C49.8888889,15.5555556 49.8333333,15.3333333 49.8333333,15.0555556 L49.8333333,9.27777778 L51,9.27777778 C52.0555556,9.27777778 52.8333333,9.55555556 53.2777778,10.1111111 C53.7222222,10.6666667 53.9444444,11.5555556 53.9444444,12.7777778 C53.9444444,13.6111111 53.8888889,14.2222222 53.7222222,14.7222222 C53.5555556,15.2222222 53.3888889,15.5555556 53.1111111,15.8333333 C52.8333333,16.0555556 52.5555556,16.2222222 52.2777778,16.3333333 C51.9444444,16.3888889 51.6111111,16.4444444 51.2777778,16.4444444 C50.9444444,16.3888889 50.7222222,16.3888889 50.5,16.3333333 C50.3333333,16.2777778 50.1666667,16.2222222 50.0555556,16.1111111 Z" id="Shape"></path>
                <rect id="Rectangle-path" x="33.6111111" y="21.1111111" width="100.722222" height="1.33333333"></rect>
                <path d="M126.277778,12.0555556 C126.555556,12.4444444 126.777778,12.7777778 127.055556,13.1111111 C127.277778,13.4444444 127.555556,13.7777778 127.777778,14.1111111 C128,14.4444444 128.222222,14.7777778 128.5,15.1111111 C128.777778,15.5 129,15.8333333 129.222222,16.2222222 C129.444444,16.5555556 129.611111,16.9444444 129.777778,17.2777778 L134.444444,17.3333333 C133.944444,16.8333333 133.5,16.3333333 133,15.8333333 C132.555556,15.3333333 132.166667,14.8888889 131.888889,14.6111111 C131.444444,14.1111111 131.055556,13.6666667 130.722222,13.2777778 C130.333333,12.8333333 130,12.4444444 129.666667,12.0555556 C129.333333,11.6666667 129,11.2222222 128.722222,10.8333333 C128.444444,10.4444444 128.111111,9.94444444 127.833333,9.5 L128.055556,9.22222222 C128.388889,8.77777778 128.777778,8.33333333 129.222222,7.77777778 C129.666667,7.22222222 130.111111,6.66666667 130.611111,6.16666667 C131.111111,5.61111111 131.555556,5.11111111 132.055556,4.66666667 C132.555556,4.22222222 132.944444,3.88888889 133.333333,3.61111111 L130.111111,3.61111111 C130,3.88888889 129.833333,4.22222222 129.611111,4.61111111 C129.388889,5 129.166667,5.44444444 128.833333,5.88888889 C128.555556,6.33333333 128.222222,6.83333333 127.944444,7.33333333 C127.611111,7.83333333 127.333333,8.27777778 127,8.72222222 C126.666667,9.16666667 126.388889,9.61111111 126.111111,9.94444444 C125.833333,10.3333333 125.611111,10.6111111 125.444444,10.8888889 C125.722222,11.2777778 126,11.6666667 126.277778,12.0555556 Z" id="Shape"></path>
                <path d="M125.888889,16.7777778 C125.833333,16.7777778 125.777778,16.7222222 125.611111,16.7222222 C125.444444,16.6666667 125.333333,16.6111111 125.277778,16.5555556 C125.222222,16.5 125.166667,16.3888889 125.111111,16.2222222 C125.111111,16.0555556 125.055556,15.8888889 125.055556,15.6666667 L125.055556,5.11111111 C125.055556,4.88888889 125.055556,4.66666667 125.111111,4.55555556 C125.111111,4.38888889 125.166667,4.27777778 125.277778,4.22222222 C125.333333,4.16666667 125.444444,4.11111111 125.611111,4.05555556 C125.777778,4 125.833333,4 125.888889,4 L125.888889,3.5 L122.166667,3.5 L121.388889,3.5 L121.388889,3.94444444 C121.444444,3.94444444 121.5,4 121.666667,4 C121.833333,4.05555556 121.944444,4.11111111 122,4.16666667 C122.055556,4.22222222 122.111111,4.33333333 122.166667,4.5 C122.166667,4.66666667 122.222222,4.83333333 122.222222,5.05555556 L122.222222,15.6111111 C122.222222,15.8333333 122.222222,16.0555556 122.166667,16.1666667 C122.166667,16.3333333 122.111111,16.4444444 122,16.5 C121.944444,16.5555556 121.833333,16.6666667 121.666667,16.6666667 C121.5,16.7222222 121.444444,16.7222222 121.388889,16.7222222 L121.388889,17.1666667 L125.888889,17.1666667 L125.888889,16.7777778 Z" id="Shape"></path>
                <path d="M96,15.5555556 C96.1666667,14.7777778 96.5,13.6666667 96.9444444,12.2777778 L101.333333,12.2777778 L101.944444,14.0555556 C102.222222,14.8333333 102.444444,15.5 102.555556,16.0555556 C102.722222,16.6111111 102.833333,17 102.833333,17.2777778 L106.333333,17.2777778 C106.166667,17 106,16.6111111 105.777778,16.1666667 C105.555556,15.7222222 105.277778,15.0555556 105,14.2222222 L101.833333,5.22222222 C101.666667,4.83333333 101.611111,4.5 101.555556,4.22222222 C101.5,3.94444444 101.5,3.72222222 101.444444,3.55555556 L97.5,3.55555556 L97.5,4 C97.5555556,4 97.6111111,4.05555556 97.7777778,4.05555556 C97.9444444,4.11111111 98.0555556,4.16666667 98.1111111,4.22222222 C98.1666667,4.27777778 98.2222222,4.38888889 98.2777778,4.55555556 C98.2777778,4.66666667 98.2777778,4.72222222 98.2777778,4.83333333 C98.2777778,5.16666667 98.2222222,5.5 98.1111111,5.72222222 L95.8888889,11.1666667 C95.5,12.1666667 95.1111111,13.0555556 94.8333333,13.7222222 C94.5555556,14.3888889 94.2777778,15 94.1111111,15.4444444 C93.8888889,15.8888889 93.7222222,16.2777778 93.5555556,16.5555556 C93.3888889,16.8333333 93.2777778,17.0555556 93.1666667,17.2777778 L95.6666667,17.2777778 C95.7222222,16.8888889 95.8333333,16.3333333 96,15.5555556 Z M99.1666667,5.77777778 L101,11.3333333 L97.2222222,11.3333333 L99.1666667,5.77777778 Z" id="Shape"></path>
                <path d="M111.611111,16.7777778 L111.5,16.7777778 C111.444444,16.7777778 111.388889,16.7222222 111.222222,16.7222222 C111.055556,16.6666667 110.944444,16.6111111 110.888889,16.5555556 C110.833333,16.5 110.777778,16.3888889 110.722222,16.2222222 C110.722222,16.0555556 110.666667,15.8888889 110.666667,15.6666667 L110.666667,10.3888889 L116,10.3888889 L116,15.6111111 C116,15.8333333 116,16.0555556 115.944444,16.1666667 C115.944444,16.3333333 115.888889,16.4444444 115.777778,16.5 C115.722222,16.5555556 115.611111,16.6666667 115.444444,16.6666667 C115.277778,16.7222222 115.222222,16.7222222 115.166667,16.7222222 L115.166667,17.1666667 L119.666667,17.1666667 L119.666667,16.7222222 C119.611111,16.7222222 119.555556,16.6666667 119.388889,16.6666667 C119.222222,16.6111111 119.111111,16.5555556 119.055556,16.5 C119,16.4444444 118.944444,16.3333333 118.888889,16.1666667 C118.888889,16 118.833333,15.8333333 118.833333,15.6111111 L118.833333,12.8888889 L118.833333,12.7777778 L118.833333,7.77777778 L118.833333,7.72222222 L118.833333,5 C118.833333,4.77777778 118.833333,4.55555556 118.888889,4.44444444 C118.888889,4.27777778 118.944444,4.16666667 119.055556,4.11111111 C119.111111,4.05555556 119.222222,4 119.388889,3.94444444 C119.555556,3.88888889 119.611111,3.88888889 119.666667,3.88888889 L119.666667,3.5 L115.944444,3.5 L115.277778,3.5 L115.277778,3.94444444 C115.333333,3.94444444 115.388889,4 115.555556,4 C115.722222,4.05555556 115.833333,4.11111111 115.888889,4.16666667 C115.944444,4.22222222 116,4.33333333 116.055556,4.5 C116.055556,4.66666667 116.111111,4.83333333 116.111111,5.05555556 L116.111111,9.44444444 L110.777778,9.44444444 L110.777778,5.05555556 C110.777778,4.83333333 110.777778,4.61111111 110.833333,4.5 C110.833333,4.33333333 110.888889,4.22222222 111,4.16666667 C111.055556,4.11111111 111.166667,4.05555556 111.333333,4 C111.5,3.94444444 111.555556,3.94444444 111.611111,3.94444444 L111.611111,3.5 L107.888889,3.5 L107.111111,3.5 L107.111111,3.94444444 C107.166667,3.94444444 107.222222,4 107.388889,4 C107.555556,4.05555556 107.666667,4.11111111 107.722222,4.16666667 C107.777778,4.22222222 107.833333,4.33333333 107.888889,4.5 C107.888889,4.66666667 107.944444,4.83333333 107.944444,5.05555556 L107.944444,5.38888889 L107.944444,14.8888889 L107.944444,14.9444444 L107.944444,15.6666667 C107.944444,15.8888889 107.944444,16.0555556 107.888889,16.2222222 C107.888889,16.3888889 107.833333,16.5 107.722222,16.5555556 C107.666667,16.6111111 107.555556,16.7222222 107.388889,16.7222222 C107.222222,16.7777778 107.166667,16.7777778 107.111111,16.7777778 L107.111111,17.2222222 L111.611111,17.2222222 L111.611111,16.7777778 L111.611111,16.7777778 Z" id="Shape"></path>
                <path d="M24.4444444,4.94444444 C24.1666667,4.55555556 23.8888889,4.16666667 23.6111111,3.77777778 L8.22222222,12.6111111 L0.777777778,8.33333333 C0.611111111,8.83333333 0.5,9.27777778 0.444444444,9.77777778 L8.27777778,14.2777778 L24.4444444,4.94444444 Z" id="Shape"></path>
                <path d="M8.22222222,15.9444444 L0.222222222,11.3333333 C0.166666667,11.6111111 0.166666667,11.9444444 0.166666667,12.2222222 C0.166666667,19.5 6.05555556,25.4444444 13.3888889,25.4444444 C20.6666667,25.4444444 26.6111111,19.5555556 26.6111111,12.2222222 C26.6111111,10.0555556 26.1111111,8 25.1666667,6.22222222 L8.22222222,15.9444444 Z" id="Shape"></path>
                <path d="M22.5555556,2.66666667 C22.1666667,2.27777778 21.7777778,2 21.3888889,1.66666667 L8.22222222,9.27777778 L1.88888889,5.66666667 C1.66666667,6.05555556 1.44444444,6.5 1.22222222,6.94444444 L8.16666667,10.9444444 L22.5555556,2.66666667 Z" id="Shape"></path>
                <path d="M20.0555556,0.777777778 C19.5555556,0.5 19.0555556,0.222222222 18.5,0 L8.22222222,5.94444444 L3.61111111,3.33333333 C3.27777778,3.66666667 3,4.05555556 2.66666667,4.44444444 L8.16666667,7.61111111 L20.0555556,0.777777778 Z" id="Shape"></path>
                <g id="Group" transform="translate(90.000000, 26.666667)">
                    <path d="M0,5.83333333 L1.05555556,0.388888889 L2.77777778,0.388888889 C3.77777778,0.388888889 4.22222222,0.888888889 4.22222222,1.66666667 C4.22222222,2.38888889 3.77777778,2.77777778 2.94444444,3.05555556 C3.5,3.27777778 3.83333333,3.66666667 3.83333333,4.22222222 C3.83333333,5.22222222 3.16666667,5.77777778 1.83333333,5.77777778 L0,5.77777778 L0,5.83333333 Z M0.666666667,5.33333333 L1.94444444,5.33333333 C2.77777778,5.33333333 3.27777778,4.88888889 3.27777778,4.22222222 C3.27777778,3.72222222 2.83333333,3.22222222 2,3.22222222 L1,3.22222222 L0.666666667,5.33333333 Z M1.16666667,2.77777778 L2.27777778,2.77777778 C3.22222222,2.77777778 3.72222222,2.33333333 3.72222222,1.66666667 C3.72222222,1.11111111 3.38888889,0.833333333 2.72222222,0.833333333 L1.61111111,0.833333333 L1.16666667,2.77777778 Z" id="Shape"></path>
                    <path d="M7.61111111,4.83333333 C7.27777778,5.44444444 6.88888889,5.88888889 6.11111111,5.88888889 C5.22222222,5.88888889 4.61111111,5.16666667 4.61111111,4.16666667 C4.61111111,2.94444444 5.38888889,1.88888889 6.44444444,1.88888889 C7.22222222,1.88888889 7.61111111,2.33333333 7.83333333,3 L7.33333333,3.11111111 C7.16666667,2.61111111 6.88888889,2.33333333 6.44444444,2.33333333 C5.72222222,2.33333333 5.11111111,3.11111111 5.11111111,4.22222222 C5.11111111,5 5.5,5.38888889 6.16666667,5.38888889 C6.77777778,5.38888889 7,5.05555556 7.22222222,4.66666667 L7.61111111,4.83333333 Z" id="Shape"></path>
                    <path d="M8.77777778,3.94444444 C8.77777778,4.05555556 8.77777778,4.16666667 8.77777778,4.22222222 C8.77777778,5 9.16666667,5.44444444 9.77777778,5.44444444 C10.3333333,5.44444444 10.6666667,5.05555556 11,4.55555556 L11.4444444,4.77777778 C11,5.44444444 10.5555556,5.88888889 9.72222222,5.88888889 C8.83333333,5.88888889 8.27777778,5.22222222 8.27777778,4.22222222 C8.27777778,2.88888889 9.05555556,1.88888889 10.1666667,1.88888889 C11.0555556,1.88888889 11.5555556,2.44444444 11.5555556,3.44444444 C11.5555556,3.61111111 11.5,3.77777778 11.5,3.94444444 L8.77777778,3.94444444 L8.77777778,3.94444444 Z M11.0555556,3.5 C11.1111111,3.38888889 11.0555556,3.33333333 11.0555556,3.27777778 C11.0555556,2.83333333 10.7777778,2.38888889 10.1666667,2.38888889 C9.44444444,2.38888889 9.11111111,2.83333333 8.88888889,3.55555556 L11.0555556,3.55555556 L11.0555556,3.5 Z" id="Shape"></path>
                    <polygon id="Shape" points="12.8333333 2 15 2 14.9444444 2.44444444 13.2777778 2.44444444 12.6111111 5.83333333 12.1111111 5.83333333"></polygon>
                    <path d="M14.5555556,5.38888889 L16.1666667,2 L16.9444444,2 L17.3888889,5.38888889 L17.7777778,5.38888889 L17.5555556,6.55555556 L17.1666667,6.55555556 L17.2222222,5.83333333 L14.6111111,5.83333333 L14.3888889,6.55555556 L14,6.55555556 L14.2222222,5.38888889 L14.5555556,5.38888889 Z M16.8333333,5.38888889 L16.5555556,2.5 L16.4444444,2.5 L15.1111111,5.38888889 L16.8333333,5.38888889 Z" id="Shape"></path>
                    <path d="M20.9444444,3.55555556 C20.9444444,3.38888889 21,3.22222222 21,3.11111111 C21,2.66666667 20.6666667,2.38888889 20.1666667,2.38888889 C19.8333333,2.38888889 19.5555556,2.55555556 19.3333333,2.83333333 L19,2.5 C19.3333333,2.22222222 19.7222222,1.94444444 20.2777778,1.94444444 C21.0555556,1.94444444 21.5555556,2.44444444 21.5555556,3.05555556 C21.5555556,3.16666667 21.5,3.38888889 21.5,3.66666667 L21.2222222,4.94444444 C21.1111111,5.38888889 21.1111111,5.66666667 21.1111111,5.88888889 L20.6111111,5.88888889 C20.5555556,5.77777778 20.5555556,5.61111111 20.5555556,5.44444444 C20.2222222,5.72222222 19.8888889,5.94444444 19.4444444,5.94444444 C18.8333333,5.94444444 18.3333333,5.44444444 18.3333333,4.83333333 C18.3333333,4.05555556 19.0555556,3.55555556 20.3888889,3.55555556 L20.9444444,3.55555556 L20.9444444,3.55555556 Z M20.8333333,3.94444444 L20.4444444,3.94444444 C19.3888889,3.94444444 18.8333333,4.22222222 18.8333333,4.77777778 C18.8333333,5.16666667 19.1111111,5.44444444 19.5,5.44444444 C19.8888889,5.44444444 20.2222222,5.22222222 20.6111111,4.94444444 L20.8333333,3.94444444 Z" id="Shape"></path>
                    <path d="M25.5555556,2.44444444 C25.8888889,2.11111111 26.2222222,1.88888889 26.6666667,1.88888889 C27.5,1.88888889 27.9444444,2.44444444 27.9444444,3.5 C27.9444444,4.88888889 27.1111111,5.88888889 26.1111111,5.88888889 C25.6111111,5.88888889 25.2777778,5.66666667 25,5.38888889 L24.6111111,7.33333333 L24.1111111,7.33333333 L25.1666667,1.94444444 L25.6111111,1.94444444 L25.5555556,2.44444444 Z M25.1111111,4.88888889 C25.3333333,5.22222222 25.6111111,5.44444444 26.1111111,5.44444444 C26.8333333,5.44444444 27.5,4.61111111 27.5,3.44444444 C27.5,2.72222222 27.1666667,2.33333333 26.6111111,2.33333333 C26.2222222,2.33333333 25.8333333,2.5 25.5555556,3 L25.1111111,4.88888889 Z" id="Shape"></path>
                    <path d="M30.1111111,4.05555556 L28.8888889,5.83333333 L28.3333333,5.83333333 L29.6111111,4.05555556 C29.1111111,3.88888889 28.8333333,3.5 28.8333333,3.05555556 C28.8333333,2.55555556 29.2777778,2 30.1666667,2 L32,2 L31.2222222,5.83333333 L30.7222222,5.83333333 L31.0555556,4.05555556 L30.1111111,4.05555556 Z M31.3333333,2.38888889 L30.1111111,2.38888889 C29.5555556,2.38888889 29.2777778,2.72222222 29.2777778,3 C29.2777778,3.38888889 29.5,3.55555556 29.9444444,3.55555556 L31.0555556,3.55555556 L31.3333333,2.38888889 Z" id="Shape"></path>
                    <path d="M32.5,5.38888889 L34.1111111,2 L34.8888889,2 L35.3333333,5.38888889 L35.7222222,5.38888889 L35.5,6.55555556 L35.1111111,6.55555556 L35.1666667,5.83333333 L32.5555556,5.83333333 L32.3333333,6.55555556 L31.9444444,6.55555556 L32.1666667,5.38888889 L32.5,5.38888889 Z M34.7222222,5.38888889 L34.4444444,2.5 L34.3333333,2.5 L33,5.38888889 L34.7222222,5.38888889 Z" id="Shape"></path>
                    <path d="M36.1666667,4.22222222 C36.1666667,2.88888889 37,1.88888889 38,1.88888889 C38.8333333,1.88888889 39.3333333,2.55555556 39.3333333,3.55555556 C39.3333333,4.83333333 38.5,5.88888889 37.5,5.88888889 C36.7222222,5.88888889 36.1666667,5.27777778 36.1666667,4.22222222 Z M36.6666667,4.33333333 C36.6666667,5.05555556 37.0555556,5.44444444 37.5555556,5.44444444 C38.2222222,5.44444444 38.8888889,4.61111111 38.8888889,3.5 C38.8888889,2.77777778 38.5,2.33333333 38,2.33333333 C37.3333333,2.33333333 36.6666667,3.16666667 36.6666667,4.33333333 Z" id="Shape"></path>
                    <polygon id="Shape" points="43.7777778 2.44444444 42.1111111 5.83333333 41.6111111 5.83333333 41.1111111 2.44444444 40.4444444 5.83333333 39.9444444 5.83333333 40.7222222 2 41.5555556 2 42 5.33333333 43.6111111 2 44.4444444 2 43.6666667 5.83333333 43.1666667 5.83333333"></polygon>
                </g>
            </g>
        </g>
    </g>
</svg>